<svg xmlns="http://www.w3.org/2000/svg" viewBox="0 0 560 200" fill="none" aria-hidden="true">
  <defs>
    <linearGradient id="bg" x1="0" y1="0" x2="560" y2="200" gradientUnits="userSpaceOnUse">
      <stop offset="0%" stop-color="#12121A"/>
      <stop offset="50%" stop-color="#1A1A26"/>
      <stop offset="100%" stop-color="#101018"/>
    </linearGradient>
    <linearGradient id="tab-a" x1="0" y1="0" x2="1" y2="0">
      <stop offset="0%" stop-color="#6C63FF"/>
      <stop offset="100%" stop-color="#9B94FF"/>
    </linearGradient>
    <linearGradient id="tab-b" x1="0" y1="0" x2="1" y2="0">
      <stop offset="0%" stop-color="#9B94FF"/>
      <stop offset="100%" stop-color="#6C63FF"/>
    </linearGradient>
    <linearGradient id="win-fill" x1="280" y1="14" x2="280" y2="186" gradientUnits="userSpaceOnUse">
      <stop offset="0%" stop-color="#6C63FF" stop-opacity="0.1"/>
      <stop offset="100%" stop-color="#FF6584" stop-opacity="0.03"/>
    </linearGradient>
    <filter id="shadow" x="-5%" y="-5%" width="110%" height="115%">
      <feDropShadow dx="0" dy="3" stdDeviation="3.5" flood-color="#6C63FF" flood-opacity="0.16"/>
    </filter>
    <filter id="win-shadow" x="-3%" y="-3%" width="106%" height="108%">
      <feDropShadow dx="0" dy="4" stdDeviation="5" flood-color="#000" flood-opacity="0.35"/>
    </filter>
  </defs>

  <rect width="560" height="200" fill="url(#bg)"/>
  <ellipse cx="90" cy="28" rx="80" ry="35" fill="#6C63FF" opacity="0.08"/>
  <ellipse cx="470" cy="175" rx="100" ry="45" fill="#FF6584" opacity="0.07"/>

  <g filter="url(#win-shadow)">
    <rect x="30" y="12" width="500" height="176" rx="14" fill="#1C1C26" stroke="#9B94FF" stroke-width="1.5"/>
    <rect x="30" y="12" width="500" height="176" rx="14" fill="url(#win-fill)"/>

    <!-- tabs -->
    <path d="M46 12V4a3 3 0 0 1 3-3h36a3 3 0 0 1 3 3v8" fill="url(#tab-a)" opacity="0.92"/>
    <path d="M88 12V2a3 3 0 0 1 3-3h32a3 3 0 0 1 3 3v10" fill="url(#tab-b)" opacity="0.72"/>
    <path d="M126 12V4a3 3 0 0 1 3-3h30a3 3 0 0 1 3 3v8" fill="url(#tab-a)" opacity="0.55"/>
    <path d="M162 12V5a3 3 0 0 1 3-3h28a3 3 0 0 1 3 3v7" fill="url(#tab-b)" opacity="0.38"/>
    <path d="M196 12V6a3 3 0 0 1 3-3h26a3 3 0 0 1 3 3v6" fill="url(#tab-a)" opacity="0.28"/>

    <!-- toolbar -->
    <rect x="42" y="24" width="476" height="20" rx="10" fill="rgba(255,255,255,0.05)"/>
    <path d="M52 34l-5-4v8z" fill="#6C63FF" opacity="0.75"/>
    <path d="M64 34l5-4v8z" fill="#9B94FF" opacity="0.6"/>
    <rect x="76" y="28" width="190" height="12" rx="6" fill="rgba(155,148,255,0.2)" stroke="rgba(108,99,255,0.35)" stroke-width="0.8"/>
    <path d="M260 34l4-3v6z" fill="#9B94FF" opacity="0.65"/>
    <rect x="272" y="28" width="96" height="12" rx="6" fill="rgba(255,255,255,0.04)" stroke="rgba(155,148,255,0.22)" stroke-width="0.8"/>
    <circle cx="282" cy="34" r="4" fill="none" stroke="#9B94FF" stroke-width="1.3" opacity="0.7"/>
    <line x1="285" y1="37" x2="288" y2="40" stroke="#9B94FF" stroke-width="1.3" stroke-linecap="round" opacity="0.7"/>
    <rect x="378" y="30" width="16" height="2.5" rx="1.25" fill="#9B94FF" opacity="0.55"/>
    <rect x="378" y="35" width="16" height="2.5" rx="1.25" fill="#FF6584" opacity="0.5"/>
    <rect x="378" y="40" width="16" height="2.5" rx="1.25" fill="#6C63FF" opacity="0.5"/>
    <circle cx="500" cy="34" r="7" fill="none" stroke="#9B94FF" stroke-width="1.2" opacity="0.55"/>
    <circle cx="500" cy="34" r="2.5" fill="#6C63FF" opacity="0.65"/>

    <!-- hero search -->
    <rect x="185" y="50" width="190" height="18" rx="9" fill="rgba(108,99,255,0.14)" stroke="#6C63FF" stroke-width="1"/>
    <rect x="198" y="56" width="130" height="3.5" rx="1.75" fill="rgba(255,255,255,0.2)"/>
    <rect x="198" y="62" width="90" height="2.5" rx="1.25" fill="rgba(255,255,255,0.12)"/>
    <circle cx="360" cy="59" r="6" fill="#6C63FF" opacity="0.6"/>
    <path d="M357.5 59h5l-2.5 4z" fill="#fff" opacity="0.85"/>

    <!-- 8 cards 2x4 -->
    <g filter="url(#shadow)">
      <!-- row 1 -->
      <rect x="42" y="76" width="110" height="46" rx="7" fill="#222230" stroke="#7D6DB3" stroke-width="1.1"/>
      <rect x="48" y="82" width="62" height="30" rx="3" fill="#2E2E3C"/>
      <polygon points="73,93 83,97 73,101" fill="#fff" opacity="0.9"/>
      <rect x="114" y="82" width="32" height="6" rx="1.5" fill="#FF8C42"/>
      <rect x="114" y="90" width="32" height="6" rx="1.5" fill="#47C1D8"/>
      <rect x="114" y="98" width="32" height="6" rx="1.5" fill="#F5D547"/>
      <rect x="114" y="106" width="32" height="6" rx="1.5" fill="#FF6584"/>
      <rect x="48" y="116" width="98" height="2.5" rx="1.25" fill="rgba(255,255,255,0.1)"/>

      <rect x="160" y="76" width="110" height="46" rx="7" fill="#222230" stroke="#7D6DB3" stroke-width="1.1"/>
      <rect x="166" y="82" width="98" height="7" rx="2" fill="#4A7FD4" opacity="0.85"/>
      <circle cx="174" cy="96" r="5" fill="#6C63FF" opacity="0.55"/>
      <rect x="184" y="93" width="40" height="2.5" rx="1.25" fill="rgba(255,255,255,0.25)"/>
      <rect x="166" y="102" width="30" height="16" rx="2" fill="#2A3A52"/>
      <path d="M170 114l5-7 4 5 5-8 7 10H170z" fill="#6C63FF" opacity="0.45"/>
      <rect x="200" y="104" width="64" height="2.5" rx="1.25" fill="rgba(255,255,255,0.18)"/>
      <rect x="200" y="109" width="50" height="2" rx="1" fill="rgba(255,255,255,0.12)"/>
      <rect x="200" y="114" width="56" height="2" rx="1" fill="rgba(255,255,255,0.08)"/>

      <rect x="278" y="76" width="110" height="46" rx="7" fill="#222230" stroke="#7D6DB3" stroke-width="1.1"/>
      <rect x="284" y="82" width="98" height="7" rx="2" fill="#7ED957" opacity="0.8"/>
      <circle cx="296" cy="102" r="8" fill="#FF8C42"/><path d="M294 102l2.5-4 2.5 4-2 1.5h-1z" fill="#fff"/>
      <circle cx="318" cy="102" r="8" fill="#F5D547"/><circle cx="318" cy="102" r="3.5" fill="#fff"/>
      <circle cx="340" cy="102" r="8" fill="#47C1D8"/><circle cx="340" cy="102" r="3.5" fill="none" stroke="#fff" stroke-width="1.2"/>
      <circle cx="362" cy="102" r="8" fill="#6C63FF"/><line x1="359" y1="102" x2="365" y2="102" stroke="#fff" stroke-width="1.2"/><line x1="362" y1="99" x2="362" y2="105" stroke="#fff" stroke-width="1.2"/>
      <rect x="284" y="114" width="80" height="2.5" rx="1.25" fill="rgba(255,255,255,0.12)"/>

      <rect x="396" y="76" width="110" height="46" rx="7" fill="#222230" stroke="#7D6DB3" stroke-width="1.1"/>
      <rect x="402" y="82" width="98" height="7" rx="2" fill="#4A7FD4" opacity="0.85"/>
      <rect x="402" y="93" width="44" height="24" rx="2" fill="#2A2A38"/>
      <rect x="408" y="107" width="5" height="7" rx="1" fill="#6C63FF" opacity="0.75"/>
      <rect x="415" y="103" width="5" height="11" rx="1" fill="#FF6584" opacity="0.75"/>
      <rect x="422" y="99" width="5" height="15" rx="1" fill="#9B94FF" opacity="0.75"/>
      <rect x="429" y="105" width="5" height="9" rx="1" fill="#47C1D8" opacity="0.75"/>
      <rect x="450" y="93" width="50" height="24" rx="2" fill="#2A2A38"/>
      <rect x="456" y="99" width="38" height="2.5" rx="1.25" fill="rgba(255,255,255,0.2)"/>
      <rect x="456" y="105" width="28" height="2" rx="1" fill="rgba(255,255,255,0.14)"/>
      <rect x="456" y="111" width="34" height="2" rx="1" fill="rgba(255,255,255,0.1)"/>

      <!-- row 2 -->
      <rect x="42" y="130" width="110" height="46" rx="7" fill="#222230" stroke="#7D6DB3" stroke-width="1.1"/>
      <rect x="48" y="136" width="98" height="7" rx="2" fill="#FF6584" opacity="0.8"/>
      <path d="M52 138h4v3h-4z M58 139.5c0-1 1-2 2-2s2 1 2 2" stroke="#fff" stroke-width="0.8" fill="none"/>
      <rect x="50" y="148" width="10" height="10" rx="2" fill="#2A2A38"/><circle cx="55" cy="153" r="3" fill="#9B94FF" opacity="0.6"/>
      <rect x="64" y="148" width="10" height="10" rx="2" fill="#2A2A38"/><rect x="67" y="151" width="4" height="4" rx="1" fill="#FF6584" opacity="0.6"/>
      <rect x="78" y="148" width="10" height="10" rx="2" fill="#2A2A38"/><circle cx="83" cy="153" r="3" fill="none" stroke="#6C63FF" stroke-width="1"/>
      <rect x="92" y="148" width="10" height="10" rx="2" fill="#2A2A38"/><path d="M95 156l3-4 2 3 3-5" stroke="#47C1D8" stroke-width="1" fill="none"/>
      <rect x="106" y="148" width="10" height="10" rx="2" fill="#2A2A38"/><rect x="109" y="151" width="4" height="5" rx="1" fill="#7ED957" opacity="0.6"/>
      <rect x="122" y="148" width="22" height="10" rx="2" fill="#2A2A38"/><rect x="125" y="151" width="16" height="2" rx="1" fill="rgba(255,255,255,0.15)"/>
      <rect x="48" y="162" width="70" height="2.5" rx="1.25" fill="rgba(255,255,255,0.1)"/>

      <rect x="160" y="130" width="110" height="46" rx="7" fill="#222230" stroke="#7D6DB3" stroke-width="1.1"/>
      <rect x="166" y="136" width="98" height="7" rx="2" fill="#FF8C42" opacity="0.85"/>
      <polygon points="178,152 184,146 190,152 187,158 181,158" fill="#6C63FF" opacity="0.7"/>
      <polygon points="196,150 202,144 208,150 205,156 199,156" fill="#47C1D8" opacity="0.7"/>
      <polygon points="214,153 220,147 226,153 223,159 217,159" fill="#FF6584" opacity="0.7"/>
      <polygon points="232,151 238,145 244,151 241,157 235,157" fill="#7ED957" opacity="0.7"/>
      <polygon points="250,154 256,148 262,154 259,160 253,160" fill="#F5D547" opacity="0.7"/>
      <polygon points="268,152 274,146 280,152 277,158 271,158" fill="#9B94FF" opacity="0.7"/>
      <rect x="166" y="164" width="80" height="2.5" rx="1.25" fill="rgba(255,255,255,0.1)"/>

      <rect x="278" y="130" width="110" height="46" rx="7" fill="#222230" stroke="#7D6DB3" stroke-width="1.1"/>
      <rect x="284" y="136" width="18" height="28" rx="2" fill="#47C1D8" opacity="0.65"/>
      <rect x="304" y="140" width="18" height="24" rx="2" fill="#FF6584" opacity="0.6"/>
      <rect x="324" y="138" width="18" height="26" rx="2" fill="#6C63FF" opacity="0.6"/>
      <rect x="344" y="142" width="18" height="22" rx="2" fill="#7ED957" opacity="0.6"/>
      <rect x="364" y="136" width="18" height="28" rx="2" fill="#F5D547" opacity="0.55"/>
      <rect x="284" y="168" width="98" height="2.5" rx="1.25" fill="rgba(255,255,255,0.1)"/>

      <rect x="396" y="130" width="110" height="46" rx="7" fill="#222230" stroke="#7D6DB3" stroke-width="1.1"/>
      <rect x="402" y="136" width="98" height="22" rx="3" fill="#2E2E3C"/>
      <polygon points="446,147 456,147 451,155" fill="#fff" opacity="0.9"/>
      <rect x="406" y="162" width="22" height="5" rx="1.5" fill="#6C63FF" opacity="0.7"/>
      <rect x="432" y="162" width="22" height="5" rx="1.5" fill="#FF6584" opacity="0.65"/>
      <rect x="458" y="162" width="22" height="5" rx="1.5" fill="#47C1D8" opacity="0.65"/>
      <rect x="484" y="162" width="16" height="5" rx="1.5" fill="#7ED957" opacity="0.6"/>
    </g>
  </g>
</svg>
